HIERARCHY
ROOT Hips
{
	OFFSET	0.00	0.00	0.00
	CHANNELS 6 Xposition Yposition Zposition Zrotation Xrotation Yrotation
	JOINT Spine
	{
		OFFSET	 0.00	0.01	 0.00
		CHANNELS 3 Zrotation Xrotation Yrotation
		JOINT Spine1
		{
			OFFSET	 0.00	 2.45913012437421	 0.00
			CHANNELS 3 Zrotation Xrotation Yrotation
            JOINT Neck
            {
                OFFSET	 0.00	 2.48462964506057	 0.00
                CHANNELS 3 Zrotation Xrotation Yrotation
                JOINT Head
                {
                    OFFSET	 0.00	 0.927524780924562	 0.00
                    CHANNELS 3 Zrotation Xrotation Yrotation
                    End Site 
                    {
                        OFFSET	 0.00	 1.14999962169752	 0.00
                    }
                }
            }
			JOINT LeftShoulder
			{
				OFFSET	 0.00	 2.48462964506057	 0.00
				CHANNELS 3 Zrotation Xrotation Yrotation
				JOINT LeftUpArm
				{
					OFFSET	 0.00	 1.24881979654096	 0.00
					CHANNELS 3 Zrotation Xrotation Yrotation
					JOINT LeftForeArm
					{
						OFFSET	 0.00	2.59758046908119	 0.00
						CHANNELS 3 Zrotation Xrotation Yrotation
						JOINT LeftHand
						{
							OFFSET	 0.00	2.45542024364365	 0.00
							CHANNELS 3 Zrotation Xrotation Yrotation
							JOINT LeftHandThumb 
							{
								OFFSET	 0.00	0.00	 0.00
								CHANNELS 3 Zrotation Xrotation Yrotation
								End Site
								{
									OFFSET	 0.00	0.00	1.00000003353624
								}
							}
							JOINT L_Wrist_End 
							{
								OFFSET	 0.00	0.99999967115358	 0.00
								CHANNELS 3 Zrotation Xrotation Yrotation
								End Site 
								{
									OFFSET	 0.00	 0.00	 0.00
								}
							}
						}
					}
				}
			}
			JOINT RightShoulder
			{
				OFFSET	 0.00	 2.48462964506057	 0.00
				CHANNELS 3 Zrotation Xrotation Yrotation
				JOINT RightUpArm
				{
					OFFSET	 0.00	 1.24881979654096	 0.00
					CHANNELS 3 Zrotation Xrotation Yrotation
					JOINT RightForeArm
					{
						OFFSET	 0.00	2.59758046908119	 0.00
						CHANNELS 3 Zrotation Xrotation Yrotation
						JOINT RightHand
						{
							OFFSET	 0.00	2.45542024364365	 0.00
							CHANNELS 3 Zrotation Xrotation Yrotation
							JOINT RightHandThumb 
							{
								OFFSET	 0.00	0.00	 0.00
								CHANNELS 3 Zrotation Xrotation Yrotation
								End Site
								{
									OFFSET	 0.00	0.00	1.00000003353624
								}
							}
							JOINT R_Wrist_End 
							{
								OFFSET	 0.00	0.99999967115358	 0.00
								CHANNELS 3 Zrotation Xrotation Yrotation
								End Site 
								{
									OFFSET	 0.00	 0.00	 0.00
								}
							}
						}
					}
				}
			}
		}
	}
	JOINT LeftUpLeg
	{
		OFFSET	 1.2719394002717	 0.00	 0.00
		CHANNELS 3 Zrotation Xrotation Yrotation
		JOINT LeftLowLeg
		{
			OFFSET	 0.00	-4.3429100912261	 0.00
			CHANNELS 3 Zrotation Xrotation Yrotation
			JOINT LeftFoot
			{
				OFFSET	 0.00	-4.48767017425826	 0.00
				CHANNELS 3 Zrotation Xrotation Yrotation
				JOINT LeftToeBase
                {
                    OFFSET	 0.00	0.00	 1.51507020887566
                    CHANNELS 3 Zrotation Xrotation Yrotation
                    End Site 
                    {
                        OFFSET	 0.00	0.00	 0.75000010571191
                    }
                }
			}
		}
	}
	JOINT RightUpLeg
	{
		OFFSET	 -1.2719393604653	 0.00	 0.00
		CHANNELS 3 Zrotation Xrotation Yrotation
		JOINT RightLowLeg
		{
			OFFSET	 0.00	-4.3429100912261	 0.00
			CHANNELS 3 Zrotation Xrotation Yrotation
			JOINT RightFoot
			{
				OFFSET	 0.00	-4.48767017425826	 0.00
				CHANNELS 3 Zrotation Xrotation Yrotation
				JOINT RightToeBase
                {
                    OFFSET	 0.00	0.00	 1.51507020887566
                    CHANNELS 3 Zrotation Xrotation Yrotation
                    End Site 
                    {
                        OFFSET	 0.00	0.00	 0.749999965609858
                    }
                }   
			}
		}
	}
}
MOTION 
Frames:	10 
Frame Time: 0.02 
 -2.0027400207519532 2.340189971923828 9.405869750976562 -147.993 77.0839 -199.315 8.04399 -18.0851 0.965402 -3.18615 3.13938 1.39668 10.7482 37.1963 -2.12161 -28.8564 -68.1555 -17.3306 -116.6111 -2.49541 5.84897 -48.6088 1.86468 -355.237 0.0 13.3539 0.0 1.74319 -9.90098 20.632 0.0 0.0 0.0 0.0 0.0 0.0 118.9148 -5.16591 -2.04381 49.3595 0.615036 -376.821 0.0 13.9562 0.0 -2.2017 -5.36237 -11.0288 0.0 0.0 0.0 0.0 0.0 0.0 1.49721 -10.1176 -23.5835 0.0 8.00558 0.0 0.240997 -3.1606007 18.4351 0.0 -11.02581 0.0 7.93427 -10.1307 396.893 0.0 6.44131 0.0 6.91835 4.1335 -17.6827 0.0 -17.49594 0.0 
  -2.0052499389648437 2.3448300170898437 9.405479736328125 -147.596 77.1188 -199.333 7.98519 -17.9481 0.795869 -3.16595 2.97296 1.20679 10.8228 37.2566 -2.21395 -28.8816 -68.1521 -17.3606 -116.6873 -2.35205 5.89176 -48.3418 2.28629 -354.894 0.0 13.6009 0.0 1.71808 -9.84411 20.9266 0.0 0.0 0.0 0.0 0.0 0.0 119.0103 -5.11758 -2.10718 48.9105 0.946089 -377.468 0.0 14.4381 0.0 -2.42436 -5.18647 -10.1057 0.0 0.0 0.0 0.0 0.0 0.0 1.48104 -10.2383 -23.9869 0.0 8.18729 0.0 0.126692 -3.2106 18.3809 0.0 -11.01705 0.0 7.939 -10.0804 396.508 0.0 6.40502 0.0 6.88028 4.1330996 -17.6995 0.0 -17.50142 0.0 
  -2.005559997558594 2.3406300354003906 9.404940185546875 -147.682 77.0567 -199.252 8.00306 -18.0896 0.828375 -3.1764 2.99544 1.25925 10.8484 37.265 -2.26118 -28.7704 -68.0753 -17.3035 -116.7681 -2.20115 5.97603 -48.0142 2.72339 -354.235 0.0 13.939 0.0 1.72189 -9.72475 20.9295 0.0 0.0 0.0 0.0 0.0 0.0 119.1084 -5.04562 -2.2 48.4424 1.19872 -378.16 0.0 15.0582 0.0 -2.81309 -5.02698 -9.73608 0.0 0.0 0.0 0.0 0.0 0.0 1.49523 -10.2576 -23.9998 0.0 8.1496 0.0 0.153789 -3.226101 18.4249 0.0 -11.0144005 0.0 7.93291 -10.0947 396.495 0.0 6.34647 0.0 6.84315 4.1357 -17.6914 0.0 -17.480259 0.0 
  -2.0054400634765623 2.336999969482422 9.404169921875 -147.811 77.023 -199.164 8.04091 -18.208 0.896802 -3.22648 3.03087 1.33025 10.9076 37.1962 -2.38694 -28.7312 -68.0187 -17.2929 -116.8657 -2.02547 6.09429 -47.6674 3.1715 -353.395 0.0 14.3724 0.0 2.0698 -9.66605 20.8852 0.0 0.0 0.0 0.0 0.0 0.0 119.1837 -4.9722 -2.29254 48.0561 1.53745 -378.536 0.0 15.5131 0.0 -3.17563 -4.85095 -9.26189 0.0 0.0 0.0 0.0 0.0 0.0 1.49321 -10.2468 -24.0043 0.0 8.10695 0.0 0.182886 -3.2448006 18.4909 0.0 -10.985991 0.0 7.91165 -10.0857 396.549 0.0 6.28787 0.0 6.84534 4.1106005 -17.7062 0.0 -17.46311 0.0 
  -2.005590057373047 2.3349400329589844 9.403460083007813 -147.856 76.9924 -199.102 8.0786 -18.2876 0.930806 -3.27419 3.04778 1.3511 10.915 37.1734 -2.40386 -28.639 -67.9727 -17.2296 -116.9779 -1.86747 6.2511 -47.3338 3.6939 -352.899 0.0 14.7837 0.0 2.41591 -9.5924 20.8796 0.0 0.0 0.0 0.0 0.0 0.0 119.262695 -4.8787 -2.39022 47.6511 1.90109 -378.911 0.0 15.9537 0.0 -3.75836 -4.2082 -6.92935 0.0 0.0 0.0 0.0 0.0 0.0 1.48791 -10.274 -24.0749 0.0 8.12183 0.0 0.181568 -3.2705002 18.5434 0.0 -10.99074 0.0 7.89565 -10.0869 396.524 0.0 6.24112 0.0 6.86532 4.1012 -17.6829 0.0 -17.47168 0.0 
  -2.0058599853515626 2.3325799560546874 9.402919921875 -147.861 76.9811 -199.082 8.10978 -18.3576 0.955794 -3.31445 3.09559 1.36896 10.9392 37.1103 -2.44255 -28.5435 -67.9441 -17.1512 -117.0775 -1.71943 6.40082 -47.0622 4.27379 -352.523 0.0 15.1206 0.0 3.03051 -9.37709 21.7425 0.0 0.0 0.0 0.0 0.0 0.0 119.3353 -4.7616 -2.49856 47.269 2.26907 -378.802 0.0 16.575 0.0 -3.64759 -4.73862 -6.80344 0.0 0.0 0.0 0.0 0.0 0.0 1.48814 -10.2746 -24.1475 0.0 8.12809 0.0 0.196716 -3.2786007 18.6026 0.0 -11.038219 0.0 7.88994 -10.0653 396.528 0.0 6.20092 0.0 6.85553 4.0908003 -17.7097 0.0 -17.46813 0.0 
  -2.0058999633789063 2.3291799926757815 9.402930297851562 -147.892 77.0061 -199.08 8.12823 -18.4181 0.973109 -3.35408 3.19194 1.3924 10.9473 37.0804 -2.40497 -28.3815 -67.9414 -16.9678 -117.1757 -1.63637 6.50311 -46.7739 4.81044 -352.076 0.0 15.5929 0.0 3.45977 -9.28233 21.882 0.0 0.0 0.0 0.0 0.0 0.0 119.3265 -4.63661 -2.51925 47.0415 2.588 -379.277 0.0 16.8101 0.0 -4.34665 -4.25146 -6.85085 0.0 0.0 0.0 0.0 0.0 0.0 1.48416 -10.2079 -24.2261 0.0 8.09285 0.0 0.26976 -3.2457008 18.737 0.0 -11.06344 0.0 7.87524 -10.011 396.563 0.0 6.17202 0.0 6.8507 4.0845003 -17.7152 0.0 -17.45158 0.0 
  -2.006479949951172 2.3304200744628907 9.402509765625 -147.759 77.0065 -199.075 8.14869 -18.3851 0.924895 -3.39922 3.14952 1.3023 10.9375 37.061 -2.35924 -28.3217 -67.9738 -16.9247 -117.2227 -1.56576 6.55647 -46.5964 5.29231 -351.841 0.0 16.0581 0.0 3.98899 -9.123 22.2423 0.0 0.0 0.0 0.0 0.0 0.0 119.366196 -4.51669 -2.52954 46.7595 2.90511 -379.522 0.0 17.0957 0.0 -4.557 -4.16101 -6.60005 0.0 0.0 0.0 0.0 0.0 0.0 1.47461 -10.2633 -24.4106 0.0 8.1677 0.0 0.158754 -3.3148994 18.7236 0.0 -11.01852 0.0 7.87584 -9.99982 396.431 0.0 6.15517 0.0 6.83451 4.0737 -17.7242 0.0 -17.45603 0.0 
  -2.0069200134277345 2.326759948730469 9.402470092773438 -147.871 76.9912 -199.02 8.15519 -18.4796 0.940264 -3.42042 3.22359 1.34054 10.957 37.0164 -2.36905 -28.2996 -68.0114 -16.9064 -117.2377 -1.50058 6.52782 -46.5045 5.69357 -351.896 0.0 16.5311 0.0 4.3383 -8.99636 22.4341 0.0 0.0 0.0 0.0 0.0 0.0 119.3371 -4.41389 -2.49959 46.6311 3.20794 -379.428 0.0 17.2794 0.0 -4.77152 -3.93606 -6.60826 0.0 0.0 0.0 0.0 0.0 0.0 1.48619 -10.2236 -24.3346 0.0 8.10209 0.0 0.174201 -3.3038998 18.7219 0.0 -11.01382 0.0 7.87059 -9.9932 396.506 0.0 6.13954 0.0 6.8377 4.0635996 -17.7407 0.0 -17.43566 0.0 
  -2.007640075683594 2.323419952392578 9.402440185546874 -147.881 76.9829 -198.997 8.14716 -18.546 0.917361 -3.42671 3.28003 1.34012 10.9553 36.9668 -2.35173 -28.2085 -68.0114 -16.8248 -117.2484 -1.46669 6.52105 -46.396 6.00997 -351.689 0.0 17.191 0.0 4.82294 -8.92491 22.334 0.0 0.0 0.0 0.0 0.0 0.0 119.2549 -4.33343 -2.46086 46.6165 3.53729 -379.199 0.0 17.3009 0.0 -4.8227 -3.81109 -6.42306 0.0 0.0 0.0 0.0 0.0 0.0 1.50102 -10.1987 -24.3182 0.0 8.06495 0.0 0.219061 -3.2798004 18.7213 0.0 -11.03318 0.0 7.87346 -9.97408 396.476 0.0 6.12033 0.0 6.79672 4.0778 -17.7441 0.0 -17.44178 0.0 
